<mxfile host="app.diagrams.net" agent="Mozilla/5.0 (Windows NT 10.0; Win64; x64) AppleWebKit/537.36 (KHTML, like Gecko) Chrome/133.0.0.0 Safari/537.36" version="26.0.16">
  <diagram name="Page-1" id="74e2e168-ea6b-b213-b513-2b3c1d86103e">
    <mxGraphModel dx="1434" dy="780" grid="1" gridSize="10" guides="1" tooltips="1" connect="1" arrows="1" fold="1" page="1" pageScale="1" pageWidth="1100" pageHeight="850" background="none" math="0" shadow="0">
      <root>
        <mxCell id="0" />
        <mxCell id="1" parent="0" />
        <mxCell id="vVhm6aPgovaox_wznGRF-1" value="User Accesses App" style="strokeWidth=2;html=1;shape=mxgraph.flowchart.start_1;whiteSpace=wrap;" vertex="1" parent="1">
          <mxGeometry x="100" y="180" width="100" height="60" as="geometry" />
        </mxCell>
        <mxCell id="vVhm6aPgovaox_wznGRF-2" value="User Authentication Flowchart" style="rounded=0;whiteSpace=wrap;html=1;" vertex="1" parent="1">
          <mxGeometry x="90" y="70" width="120" height="60" as="geometry" />
        </mxCell>
        <mxCell id="vVhm6aPgovaox_wznGRF-20" value="Yes" style="edgeStyle=orthogonalEdgeStyle;rounded=0;orthogonalLoop=1;jettySize=auto;html=1;exitX=1;exitY=0.5;exitDx=0;exitDy=0;exitPerimeter=0;" edge="1" parent="1" source="vVhm6aPgovaox_wznGRF-4" target="vVhm6aPgovaox_wznGRF-10">
          <mxGeometry relative="1" as="geometry" />
        </mxCell>
        <mxCell id="vVhm6aPgovaox_wznGRF-24" value="No" style="edgeStyle=orthogonalEdgeStyle;rounded=0;orthogonalLoop=1;jettySize=auto;html=1;entryX=0.5;entryY=0;entryDx=0;entryDy=0;" edge="1" parent="1" source="vVhm6aPgovaox_wznGRF-4" target="vVhm6aPgovaox_wznGRF-23">
          <mxGeometry relative="1" as="geometry" />
        </mxCell>
        <mxCell id="vVhm6aPgovaox_wznGRF-4" value="Existing User" style="strokeWidth=2;html=1;shape=mxgraph.flowchart.decision;whiteSpace=wrap;" vertex="1" parent="1">
          <mxGeometry x="100" y="300" width="100" height="100" as="geometry" />
        </mxCell>
        <mxCell id="vVhm6aPgovaox_wznGRF-10" value="Sign In Form" style="rounded=1;whiteSpace=wrap;html=1;absoluteArcSize=1;arcSize=14;strokeWidth=2;" vertex="1" parent="1">
          <mxGeometry x="630" y="315" width="100" height="70" as="geometry" />
        </mxCell>
        <mxCell id="vVhm6aPgovaox_wznGRF-12" value="" style="verticalLabelPosition=bottom;verticalAlign=top;html=1;strokeWidth=2;shape=mxgraph.arrows2.arrow;dy=1;dx=32.75;notch=0;rotation=90;" vertex="1" parent="1">
          <mxGeometry x="617.5" y="437.18" width="125" height="20" as="geometry" />
        </mxCell>
        <mxCell id="vVhm6aPgovaox_wznGRF-19" value="Yes" style="edgeStyle=orthogonalEdgeStyle;rounded=0;orthogonalLoop=1;jettySize=auto;html=1;" edge="1" parent="1" source="vVhm6aPgovaox_wznGRF-14">
          <mxGeometry relative="1" as="geometry">
            <mxPoint x="680" y="740" as="targetPoint" />
          </mxGeometry>
        </mxCell>
        <mxCell id="vVhm6aPgovaox_wznGRF-14" value="Valid Credentials" style="strokeWidth=2;html=1;shape=mxgraph.flowchart.decision;whiteSpace=wrap;" vertex="1" parent="1">
          <mxGeometry x="630" y="510" width="100" height="100" as="geometry" />
        </mxCell>
        <mxCell id="vVhm6aPgovaox_wznGRF-17" value="No" style="edgeStyle=orthogonalEdgeStyle;rounded=0;orthogonalLoop=1;jettySize=auto;html=1;exitX=1;exitY=0.5;exitDx=0;exitDy=0;exitPerimeter=0;entryX=1;entryY=0.5;entryDx=0;entryDy=0;" edge="1" parent="1" source="vVhm6aPgovaox_wznGRF-14" target="vVhm6aPgovaox_wznGRF-10">
          <mxGeometry relative="1" as="geometry">
            <mxPoint x="790" y="554.52" as="sourcePoint" />
            <mxPoint x="790" y="350" as="targetPoint" />
          </mxGeometry>
        </mxCell>
        <mxCell id="vVhm6aPgovaox_wznGRF-21" style="edgeStyle=orthogonalEdgeStyle;rounded=0;orthogonalLoop=1;jettySize=auto;html=1;exitX=0.5;exitY=1;exitDx=0;exitDy=0;exitPerimeter=0;entryX=0.5;entryY=0;entryDx=0;entryDy=0;entryPerimeter=0;" edge="1" parent="1" source="vVhm6aPgovaox_wznGRF-1" target="vVhm6aPgovaox_wznGRF-4">
          <mxGeometry relative="1" as="geometry" />
        </mxCell>
        <mxCell id="vVhm6aPgovaox_wznGRF-34" style="edgeStyle=orthogonalEdgeStyle;rounded=0;orthogonalLoop=1;jettySize=auto;html=1;exitX=0.5;exitY=1;exitDx=0;exitDy=0;entryX=0.5;entryY=0;entryDx=0;entryDy=0;" edge="1" parent="1" source="vVhm6aPgovaox_wznGRF-22" target="vVhm6aPgovaox_wznGRF-28">
          <mxGeometry relative="1" as="geometry" />
        </mxCell>
        <mxCell id="vVhm6aPgovaox_wznGRF-22" value="Dashboard" style="rounded=0;whiteSpace=wrap;html=1;" vertex="1" parent="1">
          <mxGeometry x="623" y="740" width="120" height="60" as="geometry" />
        </mxCell>
        <mxCell id="vVhm6aPgovaox_wznGRF-26" style="edgeStyle=orthogonalEdgeStyle;rounded=0;orthogonalLoop=1;jettySize=auto;html=1;exitX=0.5;exitY=1;exitDx=0;exitDy=0;entryX=0.5;entryY=0;entryDx=0;entryDy=0;" edge="1" parent="1" source="vVhm6aPgovaox_wznGRF-23" target="vVhm6aPgovaox_wznGRF-25">
          <mxGeometry relative="1" as="geometry" />
        </mxCell>
        <mxCell id="vVhm6aPgovaox_wznGRF-23" value="Sign Up Form" style="rounded=0;whiteSpace=wrap;html=1;" vertex="1" parent="1">
          <mxGeometry x="90" y="510" width="120" height="60" as="geometry" />
        </mxCell>
        <mxCell id="vVhm6aPgovaox_wznGRF-27" style="edgeStyle=orthogonalEdgeStyle;rounded=0;orthogonalLoop=1;jettySize=auto;html=1;exitX=1;exitY=0.5;exitDx=0;exitDy=0;entryX=0;entryY=0.5;entryDx=0;entryDy=0;" edge="1" parent="1" source="vVhm6aPgovaox_wznGRF-25" target="vVhm6aPgovaox_wznGRF-22">
          <mxGeometry relative="1" as="geometry" />
        </mxCell>
        <mxCell id="vVhm6aPgovaox_wznGRF-25" value="Create Account" style="rounded=0;whiteSpace=wrap;html=1;" vertex="1" parent="1">
          <mxGeometry x="90" y="740" width="120" height="60" as="geometry" />
        </mxCell>
        <mxCell id="vVhm6aPgovaox_wznGRF-28" value="Logout" style="ellipse;whiteSpace=wrap;html=1;" vertex="1" parent="1">
          <mxGeometry x="623" y="870" width="120" height="80" as="geometry" />
        </mxCell>
        <mxCell id="vVhm6aPgovaox_wznGRF-35" style="edgeStyle=orthogonalEdgeStyle;rounded=0;orthogonalLoop=1;jettySize=auto;html=1;entryX=0;entryY=0.5;entryDx=0;entryDy=0;entryPerimeter=0;" edge="1" parent="1" source="vVhm6aPgovaox_wznGRF-28" target="vVhm6aPgovaox_wznGRF-1">
          <mxGeometry relative="1" as="geometry">
            <Array as="points">
              <mxPoint x="50" y="910" />
              <mxPoint x="50" y="210" />
            </Array>
          </mxGeometry>
        </mxCell>
      </root>
    </mxGraphModel>
  </diagram>
</mxfile>
